<svg xmlns="http://www.w3.org/2000/svg" xmlns:xlink="http://www.w3.org/1999/xlink" preserveAspectRatio="xMidYMid" width="74" height="68" viewBox="0 0 74 68" shape-rendering="geometricPrecision">
  <defs>
    <style>
      .cls-1 {
        fill: #d4e4eb;
        filter: url(#filter-chain-1);
        fill-rule: evenodd;
      }
    </style>

    <filter id="filter-chain-1" filterUnits="userSpaceOnUse">
      <feOffset dy="3" in="SourceAlpha"/>
      <feGaussianBlur stdDeviation="2.449" result="dropBlur"/>
      <feFlood flood-color="#171777" flood-opacity="0.42"/>
      <feComposite operator="in" in2="dropBlur" result="dropShadowComp"/>
      <feComposite in="SourceGraphic" result="shadowed"/>
      <feOffset dy="1" in="SourceAlpha"/>
      <feGaussianBlur result="innerShadowBlur"/>
      <feFlood flood-color="#fff" flood-opacity="0.28"/>
      <feComposite operator="out" in2="innerShadowBlur"/>
      <feComposite operator="in" in2="SourceAlpha"/>
      <feBlend in2="shadowed" result="innerShadow"/>
    </filter>
  </defs>
  <path d="M64.243,30.865 C61.533,33.571 57.931,35.062 54.098,35.062 C50.811,35.062 47.694,33.962 45.163,31.941 L40.424,37.154 C41.388,38.784 41.174,40.921 39.773,42.321 C38.943,43.150 37.852,43.564 36.762,43.564 C35.672,43.564 34.581,43.150 33.751,42.321 C32.091,40.663 32.091,37.965 33.751,36.307 C33.776,36.282 33.804,36.261 33.830,36.236 L30.604,29.746 C30.379,29.782 30.152,29.805 29.924,29.805 C29.308,29.805 28.693,29.667 28.124,29.402 L21.077,37.154 C22.040,38.784 21.826,40.921 20.425,42.321 C19.595,43.150 18.505,43.564 17.415,43.564 C16.324,43.564 15.234,43.150 14.404,42.321 C12.744,40.663 12.744,37.965 14.404,36.307 C15.703,35.010 17.639,34.732 19.215,35.466 L26.263,27.714 C25.299,26.084 25.513,23.947 26.914,22.548 C28.574,20.890 31.275,20.890 32.935,22.548 C34.595,24.206 34.595,26.903 32.935,28.561 C32.910,28.586 32.883,28.608 32.857,28.632 L36.082,35.122 C36.917,34.988 37.783,35.103 38.562,35.466 L43.341,30.210 C38.371,24.589 38.574,15.976 43.954,10.603 C46.663,7.897 50.267,6.407 54.098,6.407 C57.931,6.407 61.533,7.897 64.243,10.603 C69.836,16.190 69.836,25.279 64.243,30.865 ZM18.648,38.083 C18.308,37.743 17.861,37.573 17.415,37.573 C16.968,37.573 16.521,37.743 16.181,38.083 C15.502,38.761 15.502,39.866 16.181,40.545 C16.861,41.224 17.968,41.224 18.648,40.545 C19.328,39.866 19.328,38.761 18.648,38.083 ZM31.158,24.323 C30.818,23.983 30.371,23.814 29.924,23.814 C29.478,23.814 29.031,23.983 28.691,24.323 C28.012,25.002 28.012,26.107 28.691,26.786 C29.371,27.465 30.478,27.465 31.158,26.786 C31.838,26.107 31.838,25.002 31.158,24.323 ZM37.995,38.083 C37.655,37.743 37.208,37.573 36.762,37.573 C36.315,37.573 35.869,37.743 35.529,38.083 C34.849,38.761 34.849,39.866 35.529,40.545 C36.209,41.224 37.315,41.224 37.995,40.545 C38.675,39.866 38.675,38.761 37.995,38.083 ZM62.556,12.288 C60.297,10.032 57.293,8.789 54.098,8.789 C50.904,8.789 47.900,10.032 45.640,12.288 C40.977,16.945 40.977,24.523 45.640,29.181 C47.900,31.437 50.904,32.679 54.098,32.679 C57.293,32.679 60.297,31.437 62.556,29.181 C67.220,24.523 67.220,16.945 62.556,12.288 ZM52.521,19.479 L55.676,19.479 C58.048,19.479 59.964,21.465 59.846,23.859 C59.735,26.099 57.800,27.819 55.555,27.819 L55.355,27.819 L55.355,29.523 C55.355,30.217 54.793,30.778 54.098,30.778 C53.404,30.778 52.841,30.217 52.841,29.523 L52.841,27.819 L50.231,27.819 C49.537,27.819 48.974,27.257 48.974,26.563 C48.974,25.870 49.537,25.308 50.231,25.308 L55.602,25.308 C56.469,25.308 57.245,24.677 57.329,23.815 C57.426,22.826 56.647,21.989 55.676,21.989 L52.642,21.989 C50.396,21.989 48.461,20.270 48.351,18.030 C48.232,15.636 50.149,13.650 52.521,13.650 L52.841,13.650 L52.841,11.945 C52.841,11.252 53.404,10.690 54.098,10.690 C54.793,10.690 55.355,11.252 55.355,11.945 L55.355,13.650 L57.966,13.650 C58.660,13.650 59.223,14.212 59.223,14.905 C59.223,15.598 58.660,16.160 57.966,16.160 L52.595,16.160 C51.728,16.160 50.952,16.792 50.867,17.654 C50.771,18.643 51.550,19.479 52.521,19.479 ZM35.989,16.213 L11.782,16.213 C9.727,16.213 8.061,17.877 8.061,19.930 L8.061,44.939 C8.061,46.991 9.727,48.655 11.782,48.655 L54.904,48.655 C56.959,48.655 58.625,46.991 58.625,44.939 L58.625,38.828 C58.625,38.135 59.188,37.573 59.882,37.573 C60.576,37.573 61.139,38.135 61.139,38.828 L61.139,44.939 C61.139,48.378 58.348,51.165 54.904,51.165 L11.782,51.165 C8.339,51.165 5.547,48.378 5.547,44.939 L5.547,19.930 C5.547,16.491 8.339,13.703 11.782,13.703 L35.989,13.703 C36.683,13.703 37.246,14.265 37.246,14.958 C37.246,15.651 36.683,16.213 35.989,16.213 ZM20.689,59.064 L24.872,59.064 L24.872,54.118 C24.872,53.425 25.435,52.863 26.129,52.863 C26.824,52.863 27.386,53.425 27.386,54.118 L27.386,59.064 L39.201,59.064 L39.201,54.118 C39.201,53.425 39.764,52.863 40.458,52.863 C41.153,52.863 41.715,53.425 41.715,54.118 L41.715,59.064 L45.899,59.064 C46.593,59.064 47.156,59.626 47.156,60.319 C47.156,61.013 46.593,61.575 45.899,61.575 L20.689,61.575 C19.995,61.575 19.432,61.013 19.432,60.319 C19.432,59.626 19.995,59.064 20.689,59.064 Z" class="cls-1"/>
</svg>
