<svg xmlns="http://www.w3.org/2000/svg" xmlns:xlink="http://www.w3.org/1999/xlink" preserveAspectRatio="xMidYMid" width="46" height="59" viewBox="0 0 46 59">
  <defs>
    <style>
      .cls-1 {
        fill: #5c5c9c;
        fill-rule: evenodd;
      }
    </style>
  </defs>
  <path d="M40.701,59.000 L5.292,59.000 C2.365,59.000 -0.009,56.622 -0.009,53.688 L-0.009,5.310 C-0.009,2.377 2.365,-0.002 5.292,-0.002 L40.701,-0.002 C43.629,-0.002 46.002,2.377 46.002,5.310 L46.002,53.688 C46.002,56.622 43.629,59.000 40.701,59.000 ZM43.509,5.310 C43.509,3.759 42.249,2.497 40.701,2.497 L5.292,2.497 C3.744,2.497 2.485,3.759 2.485,5.310 L2.485,53.688 C2.485,55.240 3.744,56.501 5.292,56.501 L40.701,56.501 C42.249,56.501 43.509,55.240 43.509,53.688 L43.509,5.310 ZM37.538,50.433 L20.636,50.433 C19.948,50.433 19.389,49.874 19.389,49.184 C19.389,48.494 19.948,47.935 20.636,47.935 L37.538,47.935 C38.226,47.935 38.785,48.494 38.785,49.184 C38.785,49.874 38.226,50.433 37.538,50.433 ZM37.538,44.588 L8.454,44.588 C7.766,44.588 7.207,44.029 7.207,43.339 C7.207,42.649 7.766,42.090 8.454,42.090 L37.538,42.090 C38.226,42.090 38.785,42.649 38.785,43.339 C38.785,44.029 38.226,44.588 37.538,44.588 ZM37.538,38.743 L31.567,38.743 C30.879,38.743 30.320,38.184 30.320,37.494 C30.320,36.804 30.879,36.244 31.567,36.244 L37.538,36.244 C38.226,36.244 38.785,36.804 38.785,37.494 C38.785,38.184 38.226,38.743 37.538,38.743 ZM31.390,27.817 C30.597,28.612 29.543,29.049 28.422,29.049 C27.300,29.049 26.246,28.612 25.453,27.817 C24.660,27.023 24.224,25.966 24.224,24.843 C24.224,23.719 24.660,22.663 25.453,21.868 C26.246,21.074 27.300,20.636 28.422,20.636 C30.736,20.636 32.620,22.523 32.620,24.843 L32.620,24.843 C32.620,25.966 32.183,27.023 31.390,27.817 ZM28.422,23.135 C27.966,23.135 27.538,23.313 27.216,23.635 C26.894,23.958 26.717,24.386 26.717,24.843 C26.717,25.299 26.894,25.728 27.216,26.050 C27.538,26.373 27.966,26.551 28.422,26.551 C28.877,26.551 29.305,26.373 29.627,26.050 C29.949,25.728 30.126,25.299 30.126,24.843 C30.126,23.901 29.362,23.135 28.422,23.135 ZM16.366,27.818 C15.879,28.306 15.090,28.306 14.603,27.818 C14.116,27.330 14.116,26.539 14.603,26.051 L29.626,10.997 C30.113,10.509 30.903,10.509 31.389,10.997 C31.876,11.485 31.876,12.276 31.389,12.764 L16.366,27.818 ZM20.540,16.946 C19.748,17.740 18.693,18.178 17.572,18.178 C16.451,18.178 15.396,17.740 14.604,16.946 C13.811,16.151 13.374,15.095 13.374,13.971 C13.374,12.848 13.811,11.791 14.604,10.996 C15.396,10.202 16.451,9.765 17.572,9.765 C19.887,9.765 21.770,11.652 21.770,13.971 L21.770,13.971 C21.770,15.095 21.333,16.151 20.540,16.946 ZM17.572,12.263 C17.117,12.263 16.688,12.441 16.367,12.763 C16.045,13.086 15.867,13.515 15.867,13.971 C15.867,14.427 16.045,14.856 16.367,15.179 C16.689,15.501 17.117,15.679 17.572,15.679 C18.027,15.679 18.455,15.501 18.777,15.179 C19.099,14.856 19.277,14.427 19.277,13.971 C19.277,13.029 18.512,12.263 17.572,12.263 ZM26.603,37.494 C26.603,38.184 26.045,38.743 25.356,38.743 L8.454,38.743 C7.766,38.743 7.207,38.184 7.207,37.494 C7.207,36.804 7.766,36.244 8.454,36.244 L25.356,36.244 C26.045,36.244 26.603,36.804 26.603,37.494 ZM8.454,47.935 L14.425,47.935 C15.114,47.935 15.672,48.494 15.672,49.184 C15.672,49.874 15.114,50.433 14.425,50.433 L8.454,50.433 C7.766,50.433 7.207,49.874 7.207,49.184 C7.207,48.494 7.766,47.935 8.454,47.935 Z" class="cls-1"/>
</svg>
