<svg xmlns="http://www.w3.org/2000/svg" xmlns:xlink="http://www.w3.org/1999/xlink" preserveAspectRatio="xMidYMid" width="57" height="70" viewBox="0 0 57 70">
  <defs>
    <style>
      .cls-1 {
        fill: #d4e4eb;
        filter: url(#filter-chain-1);
        fill-rule: evenodd;
      }
    </style>

    <filter id="filter-chain-1" filterUnits="userSpaceOnUse">
      <feOffset dy="3" in="SourceAlpha"/>
      <feGaussianBlur stdDeviation="2.449" result="dropBlur"/>
      <feFlood flood-color="#171777" flood-opacity="0.42"/>
      <feComposite operator="in" in2="dropBlur" result="dropShadowComp"/>
      <feComposite in="SourceGraphic" result="shadowed"/>
      <feOffset dy="1" in="SourceAlpha"/>
      <feGaussianBlur result="innerShadowBlur"/>
      <feFlood flood-color="#fff" flood-opacity="0.28"/>
      <feComposite operator="out" in2="innerShadowBlur"/>
      <feComposite operator="in" in2="SourceAlpha"/>
      <feBlend in2="shadowed" result="innerShadow"/>
    </filter>
  </defs>
  <path d="M42.658,64.505 L14.337,64.505 C9.460,64.505 5.507,60.541 5.507,55.652 L5.507,14.356 C5.507,9.467 9.460,5.503 14.337,5.503 L42.658,5.503 C47.534,5.503 51.488,9.467 51.488,14.356 L51.488,55.652 C51.488,60.541 47.534,64.505 42.658,64.505 ZM48.996,14.356 C48.996,10.852 46.153,8.002 42.658,8.002 L14.337,8.002 C10.842,8.002 7.999,10.852 7.999,14.356 L7.999,55.652 C7.999,59.156 10.842,62.006 14.337,62.006 L42.658,62.006 C46.153,62.006 48.996,59.156 48.996,55.652 L48.996,14.356 ZM38.553,36.732 C35.867,39.425 32.296,40.909 28.497,40.909 C24.699,40.909 21.127,39.425 18.442,36.732 C12.897,31.173 12.897,22.126 18.442,16.567 C21.127,13.874 24.699,12.390 28.497,12.390 C32.296,12.390 35.867,13.874 38.553,16.567 C44.098,22.126 44.098,31.173 38.553,36.732 ZM20.113,18.243 C15.491,22.878 15.491,30.421 20.113,35.056 C21.071,36.015 22.163,36.789 23.347,37.362 C23.124,37.020 22.909,36.656 22.707,36.266 C19.912,30.873 19.912,22.426 22.707,17.033 C22.909,16.643 23.124,16.279 23.347,15.937 C22.163,16.510 21.071,17.284 20.113,18.243 ZM27.251,15.469 C26.409,15.942 25.597,16.875 24.918,18.186 C22.499,22.853 22.499,30.446 24.918,35.113 C25.597,36.424 26.409,37.357 27.251,37.830 L27.251,15.469 ZM29.743,15.469 L29.743,37.830 C30.586,37.357 31.397,36.424 32.077,35.113 L32.077,35.113 C34.496,30.446 34.496,22.853 32.077,18.186 C31.398,16.875 30.586,15.942 29.743,15.469 ZM36.881,18.243 C35.924,17.284 34.832,16.510 33.648,15.937 C33.871,16.279 34.086,16.643 34.288,17.034 C37.083,22.426 37.083,30.873 34.288,36.266 C34.085,36.656 33.871,37.021 33.648,37.362 C34.832,36.789 35.924,36.015 36.881,35.056 C41.504,30.421 41.504,22.878 36.881,18.243 ZM16.003,45.814 L40.992,45.814 C41.680,45.814 42.238,46.373 42.238,47.063 C42.238,47.753 41.680,48.312 40.992,48.312 L16.003,48.312 C15.315,48.312 14.757,47.753 14.757,47.063 C14.757,46.373 15.315,45.814 16.003,45.814 ZM20.844,52.450 L36.150,52.450 C36.838,52.450 37.396,53.009 37.396,53.699 C37.396,54.389 36.838,54.948 36.150,54.948 L20.844,54.948 C20.156,54.948 19.599,54.389 19.599,53.699 C19.599,53.009 20.156,52.450 20.844,52.450 Z" class="cls-1"/>
</svg>
