<svg xmlns="http://www.w3.org/2000/svg" xmlns:xlink="http://www.w3.org/1999/xlink" preserveAspectRatio="xMidYMid" width="67" height="63" viewBox="0 0 67 63">
  <defs>
    <style>
      .cls-1 {
        fill: #d4e4eb;
        filter: url(#filter-chain-1);
        fill-rule: evenodd;
      }
    </style>

    <filter id="filter-chain-1" filterUnits="userSpaceOnUse">
      <feOffset dy="3" in="SourceAlpha"/>
      <feGaussianBlur stdDeviation="2.449" result="dropBlur"/>
      <feFlood flood-color="#171777" flood-opacity="0.42"/>
      <feComposite operator="in" in2="dropBlur" result="dropShadowComp"/>
      <feComposite in="SourceGraphic" result="shadowed"/>
      <feOffset dy="1" in="SourceAlpha"/>
      <feGaussianBlur result="innerShadowBlur"/>
      <feFlood flood-color="#fff" flood-opacity="0.28"/>
      <feComposite operator="out" in2="innerShadowBlur"/>
      <feComposite operator="in" in2="SourceAlpha"/>
      <feBlend in2="shadowed" result="innerShadow"/>
    </filter>
  </defs>
  <path d="M61.507,28.228 C61.507,29.434 60.788,30.512 59.674,30.974 C58.560,31.435 57.291,31.182 56.439,30.329 L34.481,8.350 C34.220,8.089 33.873,7.944 33.503,7.944 C33.134,7.944 32.787,8.089 32.526,8.350 L10.568,30.330 C9.999,30.899 9.243,31.201 8.472,31.201 C8.089,31.201 7.702,31.127 7.333,30.974 C6.219,30.512 5.500,29.434 5.500,28.228 L5.500,8.559 L21.907,8.559 C22.586,8.559 23.135,9.110 23.135,9.789 C23.135,10.468 22.586,11.018 21.907,11.018 L7.956,11.018 L7.956,28.228 C7.956,28.526 8.154,28.653 8.273,28.702 C8.391,28.751 8.621,28.802 8.831,28.591 L30.789,6.611 C31.514,5.886 32.478,5.486 33.503,5.486 C34.529,5.486 35.493,5.886 36.218,6.611 L58.176,28.591 C58.386,28.802 58.616,28.751 58.734,28.702 C58.852,28.653 59.051,28.526 59.051,28.228 L59.051,11.018 L49.365,11.018 L49.373,7.945 L45.100,7.945 C44.421,7.945 43.871,7.394 43.871,6.715 C43.871,6.036 44.421,5.486 45.100,5.486 L51.836,5.486 L51.828,8.559 L61.507,8.559 L61.507,28.228 ZM17.628,48.843 C15.556,48.843 13.876,47.162 13.876,45.089 L13.876,38.881 C13.876,36.807 15.556,35.126 17.628,35.126 L17.633,35.126 C19.705,35.126 21.384,36.807 21.384,38.881 L21.384,45.089 C21.384,47.162 19.705,48.843 17.633,48.843 L17.628,48.843 ZM18.928,45.089 L18.928,38.881 C18.928,38.166 18.347,37.584 17.633,37.584 L17.628,37.584 C16.914,37.584 16.333,38.166 16.333,38.881 L16.333,45.089 C16.333,45.803 16.914,46.385 17.628,46.385 C18.347,46.385 18.928,45.803 18.928,45.089 ZM49.374,48.843 C47.302,48.843 45.623,47.162 45.623,45.089 L45.623,38.881 C45.623,36.807 47.302,35.126 49.374,35.126 L49.379,35.126 C51.451,35.126 53.130,36.807 53.130,38.881 L53.130,45.089 C53.130,47.162 51.451,48.843 49.379,48.843 L49.374,48.843 ZM50.674,45.089 L50.674,38.881 C50.674,38.166 50.093,37.584 49.379,37.584 L49.374,37.584 C48.660,37.584 48.079,38.166 48.079,38.881 L48.079,45.089 C48.079,45.803 48.660,46.385 49.374,46.385 C50.093,46.385 50.674,45.803 50.674,45.089 ZM9.799,33.361 C10.477,33.361 11.027,33.911 11.027,34.590 L11.027,52.798 C11.027,54.042 12.038,55.054 13.280,55.054 L24.335,55.054 L24.335,29.994 C24.335,26.429 31.353,26.152 33.503,26.152 C35.655,26.152 42.673,26.429 42.673,29.994 L42.673,55.054 L53.727,55.054 C54.969,55.054 55.980,54.042 55.980,52.798 L55.980,34.590 C55.980,33.911 56.530,33.361 57.208,33.361 C57.887,33.361 58.437,33.911 58.437,34.590 L58.437,52.798 C58.437,55.398 56.324,57.513 53.727,57.513 L13.280,57.513 C10.683,57.513 8.571,55.398 8.571,52.798 L8.571,34.590 C8.571,33.911 9.120,33.361 9.799,33.361 ZM26.791,55.054 L40.216,55.054 L40.216,30.017 C39.952,29.505 37.520,28.611 33.503,28.611 C29.487,28.611 27.055,29.505 26.791,30.017 L26.791,55.054 Z" class="cls-1"/>
</svg>
