<svg xmlns="http://www.w3.org/2000/svg" xmlns:xlink="http://www.w3.org/1999/xlink" preserveAspectRatio="xMidYMid" width="62.594" height="58.468" viewBox="0 0 62.594 58.468">
  <defs>
    <style>
      .cls-1 {
        fill: #5c5c9c;
        fill-rule: evenodd;
      }
    </style>
  </defs>
  <path d="M61.321,58.454 L1.265,58.454 C0.570,58.454 0.008,57.892 0.008,57.199 C0.008,56.506 0.570,55.943 1.265,55.943 L5.852,55.943 L5.852,1.252 C5.852,0.826 6.068,0.429 6.426,0.198 C6.785,-0.033 7.237,-0.067 7.625,0.108 L34.203,12.060 C34.653,12.263 34.943,12.711 34.943,13.205 L34.943,17.748 L55.993,27.215 C56.444,27.418 56.734,27.866 56.734,28.360 L56.734,55.943 L61.321,55.943 C62.015,55.943 62.578,56.506 62.578,57.199 C62.578,57.892 62.015,58.454 61.321,58.454 ZM32.429,14.016 L8.366,3.194 L8.366,55.897 L32.429,55.897 L32.429,14.016 ZM54.220,29.171 L34.943,20.502 L34.943,55.897 L54.220,55.897 L54.220,29.171 ZM39.033,26.931 L40.653,26.931 C41.347,26.931 41.910,27.493 41.910,28.186 C41.910,28.879 41.347,29.441 40.653,29.441 L39.033,29.441 C38.339,29.441 37.776,28.879 37.776,28.186 C37.776,27.493 38.339,26.931 39.033,26.931 ZM39.033,34.618 L40.653,34.618 C41.347,34.618 41.910,35.180 41.910,35.874 C41.910,36.567 41.347,37.129 40.653,37.129 L39.033,37.129 C38.339,37.129 37.776,36.567 37.776,35.874 C37.776,35.180 38.339,34.618 39.033,34.618 ZM39.033,42.306 L40.653,42.306 C41.347,42.306 41.910,42.868 41.910,43.561 C41.910,44.254 41.347,44.816 40.653,44.816 L39.033,44.816 C38.339,44.816 37.776,44.254 37.776,43.561 C37.776,42.868 38.339,42.306 39.033,42.306 ZM39.033,49.993 L40.653,49.993 C41.347,49.993 41.910,50.555 41.910,51.248 C41.910,51.941 41.347,52.503 40.653,52.503 L39.033,52.503 C38.339,52.503 37.776,51.941 37.776,51.248 C37.776,50.555 38.339,49.993 39.033,49.993 ZM45.368,34.618 L50.130,34.618 C50.824,34.618 51.387,35.180 51.387,35.874 C51.387,36.567 50.824,37.129 50.130,37.129 L45.368,37.129 C44.674,37.129 44.111,36.567 44.111,35.874 C44.111,35.180 44.674,34.618 45.368,34.618 ZM45.368,42.306 L50.130,42.306 C50.824,42.306 51.387,42.868 51.387,43.561 C51.387,44.254 50.824,44.816 50.130,44.816 L45.368,44.816 C44.674,44.816 44.111,44.254 44.111,43.561 C44.111,42.868 44.674,42.306 45.368,42.306 ZM45.368,49.993 L50.130,49.993 C50.824,49.993 51.387,50.555 51.387,51.248 C51.387,51.941 50.824,52.503 50.130,52.503 L45.368,52.503 C44.674,52.503 44.111,51.941 44.111,51.248 C44.111,50.555 44.674,49.993 45.368,49.993 ZM13.121,11.556 L17.883,11.556 C18.577,11.556 19.140,12.118 19.140,12.811 C19.140,13.505 18.577,14.067 17.883,14.067 L13.121,14.067 C12.426,14.067 11.864,13.505 11.864,12.811 C11.864,12.118 12.426,11.556 13.121,11.556 ZM13.121,19.244 L17.883,19.244 C18.577,19.244 19.140,19.806 19.140,20.499 C19.140,21.192 18.577,21.754 17.883,21.754 L13.121,21.754 C12.426,21.754 11.864,21.192 11.864,20.499 C11.864,19.806 12.426,19.244 13.121,19.244 ZM13.121,26.931 L17.883,26.931 C18.577,26.931 19.140,27.493 19.140,28.186 C19.140,28.879 18.577,29.441 17.883,29.441 L13.121,29.441 C12.426,29.441 11.864,28.879 11.864,28.186 C11.864,27.493 12.426,26.931 13.121,26.931 ZM13.121,34.618 L17.883,34.618 C18.577,34.618 19.140,35.180 19.140,35.874 C19.140,36.567 18.577,37.129 17.883,37.129 L13.121,37.129 C12.426,37.129 11.864,36.567 11.864,35.874 C11.864,35.180 12.426,34.618 13.121,34.618 ZM13.121,42.306 L17.883,42.306 C18.577,42.306 19.140,42.868 19.140,43.561 C19.140,44.254 18.577,44.816 17.883,44.816 L13.121,44.816 C12.426,44.816 11.864,44.254 11.864,43.561 C11.864,42.868 12.426,42.306 13.121,42.306 ZM13.121,49.993 L17.883,49.993 C18.577,49.993 19.140,50.555 19.140,51.248 C19.140,51.941 18.577,52.503 17.883,52.503 L13.121,52.503 C12.426,52.503 11.864,51.941 11.864,51.248 C11.864,50.555 12.426,49.993 13.121,49.993 ZM22.912,19.244 L27.675,19.244 C28.369,19.244 28.932,19.806 28.932,20.499 C28.932,21.192 28.369,21.754 27.675,21.754 L22.912,21.754 C22.218,21.754 21.655,21.192 21.655,20.499 C21.655,19.806 22.218,19.244 22.912,19.244 ZM22.912,26.931 L27.675,26.931 C28.369,26.931 28.932,27.493 28.932,28.186 C28.932,28.879 28.369,29.441 27.675,29.441 L22.912,29.441 C22.218,29.441 21.655,28.879 21.655,28.186 C21.655,27.493 22.218,26.931 22.912,26.931 ZM22.912,34.618 L27.675,34.618 C28.369,34.618 28.932,35.180 28.932,35.874 C28.932,36.567 28.369,37.129 27.675,37.129 L22.912,37.129 C22.218,37.129 21.655,36.567 21.655,35.874 C21.655,35.180 22.218,34.618 22.912,34.618 ZM22.912,42.306 L27.675,42.306 C28.369,42.306 28.932,42.868 28.932,43.561 C28.932,44.254 28.369,44.816 27.675,44.816 L22.912,44.816 C22.218,44.816 21.655,44.254 21.655,43.561 C21.655,42.868 22.218,42.306 22.912,42.306 ZM22.912,49.993 L27.675,49.993 C28.369,49.993 28.932,50.555 28.932,51.248 C28.932,51.941 28.369,52.503 27.675,52.503 L22.912,52.503 C22.218,52.503 21.655,51.941 21.655,51.248 C21.655,50.555 22.218,49.993 22.912,49.993 Z" class="cls-1"/>
</svg>
