<svg xmlns="http://www.w3.org/2000/svg" xmlns:xlink="http://www.w3.org/1999/xlink" preserveAspectRatio="xMidYMid" width="58.09" height="51.125" viewBox="0 0 58.09 51.125">
  <defs>
    <style>
      .cls-1 {
        fill: #5c5c9c;
        fill-rule: evenodd;
      }
    </style>
  </defs>
  <path d="M52.745,40.479 L31.245,40.479 L13.498,51.117 L13.498,40.479 L5.328,40.479 C2.377,40.479 -0.016,38.090 -0.016,35.142 L-0.016,5.343 C-0.016,2.395 2.377,0.006 5.328,0.006 L52.745,0.006 C55.697,0.006 58.090,2.395 58.090,5.343 L58.090,35.142 C58.090,38.090 55.697,40.479 52.745,40.479 ZM55.576,5.343 C55.576,3.784 54.306,2.516 52.745,2.516 L5.328,2.516 C3.768,2.516 2.498,3.784 2.498,5.343 L2.498,35.142 C2.498,36.701 3.768,37.969 5.328,37.969 L13.498,37.969 L16.011,37.969 L16.011,40.479 L16.011,46.682 L29.951,38.327 L30.548,37.969 L31.245,37.969 L52.745,37.969 C54.306,37.969 55.576,36.701 55.576,35.142 L55.576,5.343 ZM46.259,26.053 C45.775,26.500 45.212,26.826 44.571,27.032 C43.930,27.237 43.179,27.340 42.320,27.340 C41.298,27.340 40.417,27.230 39.679,27.009 C38.940,26.789 38.338,26.447 37.873,25.985 C37.407,25.523 37.065,24.931 36.847,24.208 C36.629,23.486 36.520,22.624 36.520,21.620 L36.520,15.230 C36.520,14.686 36.643,14.279 36.888,14.007 C37.133,13.735 37.455,13.599 37.855,13.599 C38.272,13.599 38.603,13.735 38.848,14.007 C39.093,14.279 39.216,14.686 39.216,15.230 L39.216,21.766 C39.216,22.509 39.299,23.130 39.465,23.628 C39.632,24.127 39.927,24.514 40.351,24.788 C40.774,25.064 41.367,25.201 42.130,25.201 C43.182,25.201 43.927,24.921 44.362,24.362 C44.798,23.804 45.016,22.956 45.016,21.820 L45.016,15.230 C45.016,14.681 45.137,14.271 45.379,14.002 C45.621,13.733 45.945,13.599 46.350,13.599 C46.756,13.599 47.084,13.733 47.335,14.002 C47.586,14.271 47.712,14.681 47.712,15.230 L47.712,21.620 C47.712,22.660 47.610,23.527 47.407,24.222 C47.205,24.917 46.822,25.527 46.259,26.053 ZM33.080,24.974 C33.504,24.974 33.823,25.072 34.038,25.269 C34.253,25.465 34.360,25.727 34.360,26.053 C34.360,26.367 34.253,26.622 34.038,26.819 C33.823,27.015 33.504,27.113 33.080,27.113 L25.756,27.113 C25.169,27.113 24.747,26.984 24.490,26.724 C24.232,26.464 24.104,26.044 24.104,25.464 L24.104,15.475 C24.104,15.088 24.161,14.773 24.276,14.528 C24.391,14.283 24.571,14.105 24.816,13.993 C25.061,13.881 25.375,13.825 25.756,13.825 L32.872,13.825 C33.301,13.825 33.621,13.920 33.829,14.111 C34.038,14.301 34.143,14.550 34.143,14.859 C34.143,15.173 34.038,15.425 33.829,15.615 C33.621,15.806 33.301,15.901 32.872,15.901 L26.799,15.901 L26.799,19.164 L32.391,19.164 C32.802,19.164 33.109,19.256 33.312,19.441 C33.514,19.625 33.616,19.868 33.616,20.170 C33.616,20.472 33.516,20.719 33.316,20.909 C33.117,21.099 32.808,21.195 32.391,21.195 L26.799,21.195 L26.799,24.974 L33.080,24.974 ZM20.882,24.399 C20.591,24.928 20.219,25.400 19.765,25.817 C19.408,26.137 19.018,26.394 18.595,26.588 C18.171,26.781 17.715,26.917 17.228,26.995 C16.741,27.074 16.192,27.113 15.581,27.113 L12.068,27.113 C11.578,27.113 11.209,27.039 10.961,26.891 C10.713,26.743 10.551,26.535 10.476,26.266 C10.400,25.997 10.362,25.648 10.362,25.219 L10.362,15.475 C10.362,14.895 10.492,14.475 10.753,14.215 C11.013,13.955 11.433,13.825 12.014,13.825 L15.527,13.825 C16.440,13.825 17.224,13.910 17.878,14.079 C18.531,14.248 19.124,14.566 19.657,15.031 C21.042,16.215 21.735,18.016 21.735,20.433 C21.735,21.231 21.665,21.959 21.526,22.617 C21.387,23.276 21.172,23.870 20.882,24.399 ZM18.409,17.469 C18.012,16.816 17.523,16.401 16.943,16.223 C16.362,16.045 15.660,15.955 14.837,15.955 L13.058,15.955 L13.058,24.974 L15.100,24.974 C15.548,24.974 15.899,24.962 16.153,24.938 C16.407,24.914 16.670,24.853 16.943,24.757 C17.215,24.660 17.451,24.524 17.651,24.349 C18.552,23.587 19.003,22.276 19.003,20.415 C19.003,19.104 18.805,18.122 18.409,17.469 Z" class="cls-1"/>
</svg>
