<svg xmlns="http://www.w3.org/2000/svg" xmlns:xlink="http://www.w3.org/1999/xlink" preserveAspectRatio="xMidYMid" width="57" height="70" viewBox="0 0 57 70">
  <defs>
    <style>
      .cls-1 {
        fill: #d4e4eb;
        filter: url(#filter-chain-1);
        fill-rule: evenodd;
      }
    </style>

    <filter id="filter-chain-1" filterUnits="userSpaceOnUse">
      <feOffset dy="3" in="SourceAlpha"/>
      <feGaussianBlur stdDeviation="2.449" result="dropBlur"/>
      <feFlood flood-color="#171777" flood-opacity="0.42"/>
      <feComposite operator="in" in2="dropBlur" result="dropShadowComp"/>
      <feComposite in="SourceGraphic" result="shadowed"/>
      <feOffset dy="1" in="SourceAlpha"/>
      <feGaussianBlur result="innerShadowBlur"/>
      <feFlood flood-color="#fff" flood-opacity="0.28"/>
      <feComposite operator="out" in2="innerShadowBlur"/>
      <feComposite operator="in" in2="SourceAlpha"/>
      <feBlend in2="shadowed" result="innerShadow"/>
    </filter>
  </defs>
  <path d="M46.201,64.500 L10.792,64.500 C7.865,64.500 5.491,62.122 5.491,59.188 L5.491,10.810 C5.491,7.877 7.865,5.498 10.792,5.498 L46.201,5.498 C49.129,5.498 51.502,7.877 51.502,10.810 L51.502,59.188 C51.502,62.122 49.129,64.500 46.201,64.500 ZM49.009,10.810 C49.009,9.259 47.749,7.997 46.201,7.997 L10.792,7.997 C9.244,7.997 7.985,9.259 7.985,10.810 L7.985,59.188 C7.985,60.740 9.244,62.001 10.792,62.001 L46.201,62.001 C47.749,62.001 49.009,60.740 49.009,59.188 L49.009,10.810 ZM43.038,55.933 L26.136,55.933 C25.448,55.933 24.889,55.374 24.889,54.684 C24.889,53.994 25.448,53.435 26.136,53.435 L43.038,53.435 C43.726,53.435 44.285,53.994 44.285,54.684 C44.285,55.374 43.726,55.933 43.038,55.933 ZM43.038,50.088 L13.954,50.088 C13.266,50.088 12.707,49.529 12.707,48.839 C12.707,48.149 13.266,47.590 13.954,47.590 L43.038,47.590 C43.726,47.590 44.285,48.149 44.285,48.839 C44.285,49.529 43.726,50.088 43.038,50.088 ZM43.038,44.243 L37.067,44.243 C36.379,44.243 35.820,43.684 35.820,42.994 C35.820,42.304 36.379,41.744 37.067,41.744 L43.038,41.744 C43.726,41.744 44.285,42.304 44.285,42.994 C44.285,43.684 43.726,44.243 43.038,44.243 ZM36.890,33.317 C36.097,34.112 35.043,34.549 33.922,34.549 C32.800,34.549 31.746,34.112 30.953,33.317 C30.160,32.523 29.724,31.466 29.724,30.343 C29.724,29.219 30.160,28.163 30.953,27.368 C31.746,26.574 32.800,26.136 33.922,26.136 C36.236,26.136 38.120,28.023 38.120,30.343 L38.120,30.343 C38.120,31.466 37.683,32.523 36.890,33.317 ZM33.922,28.635 C33.466,28.635 33.038,28.813 32.716,29.135 C32.394,29.458 32.217,29.886 32.217,30.343 C32.217,30.799 32.394,31.228 32.716,31.550 C33.038,31.873 33.466,32.051 33.922,32.051 C34.377,32.051 34.805,31.873 35.127,31.550 C35.449,31.228 35.626,30.799 35.626,30.343 C35.626,29.401 34.862,28.635 33.922,28.635 ZM21.866,33.318 C21.379,33.806 20.590,33.806 20.103,33.318 C19.616,32.830 19.616,32.039 20.103,31.551 L35.126,16.497 C35.613,16.009 36.403,16.009 36.889,16.497 C37.376,16.985 37.376,17.776 36.889,18.264 L21.866,33.318 ZM26.040,22.446 C25.248,23.240 24.193,23.678 23.072,23.678 C21.951,23.678 20.896,23.240 20.104,22.446 C19.311,21.651 18.874,20.595 18.874,19.471 C18.874,18.348 19.311,17.291 20.104,16.496 C20.896,15.702 21.951,15.265 23.072,15.265 C25.387,15.265 27.270,17.152 27.270,19.471 L27.270,19.471 C27.270,20.595 26.833,21.651 26.040,22.446 ZM23.072,17.763 C22.617,17.763 22.188,17.941 21.867,18.263 C21.545,18.586 21.367,19.015 21.367,19.471 C21.367,19.927 21.545,20.356 21.867,20.679 C22.189,21.001 22.617,21.179 23.072,21.179 C23.527,21.179 23.955,21.001 24.277,20.679 C24.599,20.356 24.777,19.927 24.777,19.471 C24.777,18.529 24.012,17.763 23.072,17.763 ZM32.103,42.994 C32.103,43.684 31.545,44.243 30.856,44.243 L13.954,44.243 C13.266,44.243 12.707,43.684 12.707,42.994 C12.707,42.304 13.266,41.744 13.954,41.744 L30.856,41.744 C31.545,41.744 32.103,42.304 32.103,42.994 ZM13.954,53.435 L19.925,53.435 C20.614,53.435 21.172,53.994 21.172,54.684 C21.172,55.374 20.614,55.933 19.925,55.933 L13.954,55.933 C13.266,55.933 12.707,55.374 12.707,54.684 C12.707,53.994 13.266,53.435 13.954,53.435 Z" class="cls-1"/>
</svg>
