<svg xmlns="http://www.w3.org/2000/svg" xmlns:xlink="http://www.w3.org/1999/xlink" preserveAspectRatio="xMidYMid" width="46" height="59" viewBox="0 0 46 59">
  <defs>
    <style>
      .cls-1 {
        fill: #5c5c9c;
        fill-rule: evenodd;
      }
    </style>
  </defs>
  <path d="M37.158,59.005 L8.837,59.005 C3.960,59.005 0.007,55.041 0.007,50.152 L0.007,8.856 C0.007,3.967 3.960,0.003 8.837,0.003 L37.158,0.003 C42.034,0.003 45.988,3.967 45.988,8.856 L45.988,50.152 C45.988,55.041 42.034,59.005 37.158,59.005 ZM43.496,8.856 C43.496,5.352 40.653,2.502 37.158,2.502 L8.837,2.502 C5.342,2.502 2.499,5.352 2.499,8.856 L2.499,50.152 C2.499,53.656 5.342,56.506 8.837,56.506 L37.158,56.506 C40.653,56.506 43.496,53.656 43.496,50.152 L43.496,8.856 ZM33.053,31.232 C30.367,33.925 26.796,35.409 22.997,35.409 C19.199,35.409 15.627,33.925 12.942,31.232 C7.397,25.673 7.397,16.626 12.942,11.067 C15.627,8.374 19.199,6.890 22.997,6.890 C26.796,6.890 30.367,8.374 33.053,11.067 C38.598,16.626 38.598,25.673 33.053,31.232 ZM14.613,12.743 C9.991,17.378 9.991,24.921 14.613,29.556 C15.571,30.515 16.663,31.289 17.847,31.862 C17.624,31.520 17.409,31.156 17.207,30.766 C14.412,25.373 14.412,16.926 17.207,11.533 C17.409,11.143 17.624,10.779 17.847,10.437 C16.663,11.010 15.571,11.784 14.613,12.743 ZM21.751,9.969 C20.909,10.442 20.097,11.375 19.418,12.686 C16.999,17.353 16.999,24.946 19.418,29.613 C20.097,30.924 20.909,31.857 21.751,32.330 L21.751,9.969 ZM24.243,9.969 L24.243,32.330 C25.086,31.857 25.897,30.924 26.577,29.613 L26.577,29.613 C28.996,24.946 28.996,17.353 26.577,12.686 C25.898,11.375 25.086,10.442 24.243,9.969 ZM31.381,12.743 C30.424,11.784 29.332,11.010 28.148,10.437 C28.371,10.779 28.586,11.143 28.788,11.534 C31.583,16.926 31.583,25.373 28.788,30.766 C28.585,31.156 28.371,31.521 28.148,31.862 C29.332,31.289 30.424,30.515 31.381,29.556 C36.004,24.921 36.004,17.378 31.381,12.743 ZM10.503,40.314 L35.492,40.314 C36.180,40.314 36.738,40.873 36.738,41.563 C36.738,42.253 36.180,42.812 35.492,42.812 L10.503,42.812 C9.815,42.812 9.257,42.253 9.257,41.563 C9.257,40.873 9.815,40.314 10.503,40.314 ZM15.344,46.950 L30.650,46.950 C31.338,46.950 31.896,47.509 31.896,48.199 C31.896,48.889 31.338,49.448 30.650,49.448 L15.344,49.448 C14.656,49.448 14.099,48.889 14.099,48.199 C14.099,47.509 14.656,46.950 15.344,46.950 Z" class="cls-1"/>
</svg>
