<svg xmlns="http://www.w3.org/2000/svg" xmlns:xlink="http://www.w3.org/1999/xlink" preserveAspectRatio="xMidYMid" width="62.906" height="55.156" viewBox="0 0 62.906 55.156">
  <defs>
    <style>
      .cls-1 {
        fill: #5c5c9c;
        fill-rule: evenodd;
      }
    </style>
  </defs>
  <path d="M58.696,24.443 C55.986,27.149 52.384,28.640 48.551,28.640 C45.264,28.640 42.147,27.540 39.616,25.519 L34.877,30.732 C35.841,32.362 35.627,34.499 34.226,35.899 C33.396,36.728 32.305,37.142 31.215,37.142 C30.125,37.142 29.034,36.728 28.204,35.899 C26.544,34.241 26.544,31.543 28.204,29.885 C28.229,29.860 28.257,29.839 28.283,29.814 L25.057,23.324 C24.832,23.360 24.605,23.383 24.377,23.383 C23.761,23.383 23.146,23.245 22.577,22.980 L15.530,30.732 C16.493,32.362 16.279,34.499 14.878,35.899 C14.048,36.728 12.958,37.142 11.868,37.142 C10.777,37.142 9.687,36.728 8.857,35.899 C7.197,34.241 7.197,31.543 8.857,29.885 C10.156,28.588 12.092,28.310 13.668,29.044 L20.716,21.292 C19.752,19.662 19.966,17.525 21.367,16.126 C23.027,14.468 25.728,14.468 27.388,16.126 C29.048,17.784 29.048,20.481 27.388,22.139 C27.363,22.164 27.336,22.186 27.310,22.210 L30.535,28.700 C31.370,28.566 32.236,28.681 33.015,29.044 L37.794,23.788 C32.824,18.167 33.027,9.554 38.407,4.181 C41.116,1.475 44.720,-0.015 48.551,-0.015 C52.384,-0.015 55.986,1.475 58.696,4.181 C64.289,9.768 64.289,18.857 58.696,24.443 ZM13.101,31.661 C12.761,31.321 12.314,31.151 11.868,31.151 C11.421,31.151 10.974,31.321 10.634,31.661 C9.955,32.339 9.955,33.444 10.634,34.123 C11.314,34.802 12.421,34.802 13.101,34.123 C13.781,33.444 13.781,32.339 13.101,31.661 ZM25.611,17.901 C25.271,17.561 24.824,17.392 24.377,17.392 C23.931,17.392 23.484,17.561 23.144,17.901 C22.465,18.580 22.465,19.685 23.144,20.364 C23.824,21.043 24.931,21.043 25.611,20.364 C26.291,19.685 26.291,18.580 25.611,17.901 ZM32.448,31.661 C32.108,31.321 31.661,31.151 31.215,31.151 C30.768,31.151 30.322,31.321 29.982,31.661 C29.302,32.339 29.302,33.444 29.982,34.123 C30.662,34.802 31.768,34.802 32.448,34.123 C33.128,33.444 33.128,32.339 32.448,31.661 ZM57.009,5.866 C54.750,3.610 51.746,2.367 48.551,2.367 C45.357,2.367 42.353,3.610 40.093,5.866 C35.430,10.523 35.430,18.101 40.093,22.759 C42.353,25.015 45.357,26.257 48.551,26.257 C51.746,26.257 54.750,25.015 57.009,22.759 C61.673,18.101 61.673,10.523 57.009,5.866 ZM46.974,13.057 L50.129,13.057 C52.501,13.057 54.417,15.043 54.299,17.437 C54.188,19.677 52.253,21.397 50.008,21.397 L49.808,21.397 L49.808,23.101 C49.808,23.795 49.246,24.356 48.551,24.356 C47.857,24.356 47.294,23.795 47.294,23.101 L47.294,21.397 L44.684,21.397 C43.990,21.397 43.427,20.835 43.427,20.141 C43.427,19.448 43.990,18.886 44.684,18.886 L50.055,18.886 C50.922,18.886 51.698,18.255 51.782,17.393 C51.879,16.404 51.100,15.567 50.129,15.567 L47.095,15.567 C44.849,15.567 42.914,13.848 42.804,11.608 C42.685,9.214 44.602,7.228 46.974,7.228 L47.294,7.228 L47.294,5.523 C47.294,4.830 47.857,4.268 48.551,4.268 C49.246,4.268 49.808,4.830 49.808,5.523 L49.808,7.228 L52.419,7.228 C53.113,7.228 53.676,7.790 53.676,8.483 C53.676,9.176 53.113,9.738 52.419,9.738 L47.048,9.738 C46.181,9.738 45.405,10.370 45.320,11.232 C45.224,12.221 46.003,13.057 46.974,13.057 ZM30.442,9.791 L6.235,9.791 C4.180,9.791 2.514,11.455 2.514,13.508 L2.514,38.517 C2.514,40.569 4.180,42.233 6.235,42.233 L49.357,42.233 C51.412,42.233 53.078,40.569 53.078,38.517 L53.078,32.406 C53.078,31.713 53.641,31.151 54.335,31.151 C55.029,31.151 55.592,31.713 55.592,32.406 L55.592,38.517 C55.592,41.956 52.801,44.743 49.357,44.743 L6.235,44.743 C2.792,44.743 0.000,41.956 0.000,38.517 L0.000,13.508 C0.000,10.069 2.792,7.281 6.235,7.281 L30.442,7.281 C31.136,7.281 31.699,7.843 31.699,8.536 C31.699,9.229 31.136,9.791 30.442,9.791 ZM15.142,52.642 L19.325,52.642 L19.325,47.696 C19.325,47.003 19.888,46.441 20.582,46.441 C21.277,46.441 21.839,47.003 21.839,47.696 L21.839,52.642 L33.654,52.642 L33.654,47.696 C33.654,47.003 34.217,46.441 34.911,46.441 C35.606,46.441 36.168,47.003 36.168,47.696 L36.168,52.642 L40.352,52.642 C41.046,52.642 41.609,53.204 41.609,53.897 C41.609,54.591 41.046,55.153 40.352,55.153 L15.142,55.153 C14.448,55.153 13.885,54.591 13.885,53.897 C13.885,53.204 14.448,52.642 15.142,52.642 Z" class="cls-1"/>
</svg>
