<svg xmlns="http://www.w3.org/2000/svg" xmlns:xlink="http://www.w3.org/1999/xlink" preserveAspectRatio="xMidYMid" width="72" height="56" viewBox="0 0 72 56">
  <defs>
    <style>
      .cls-1 {
        fill: #d4e4eb;
        filter: url(#filter-chain-1);
        fill-rule: evenodd;
      }
    </style>

    <filter id="filter-chain-1" filterUnits="userSpaceOnUse">
      <feOffset dy="3" in="SourceAlpha"/>
      <feGaussianBlur stdDeviation="2.449" result="dropBlur"/>
      <feFlood flood-color="#171777" flood-opacity="0.42"/>
      <feComposite operator="in" in2="dropBlur" result="dropShadowComp"/>
      <feComposite in="SourceGraphic" result="shadowed"/>
      <feOffset dy="1" in="SourceAlpha"/>
      <feGaussianBlur result="innerShadowBlur"/>
      <feFlood flood-color="#fff" flood-opacity="0.28"/>
      <feComposite operator="out" in2="innerShadowBlur"/>
      <feComposite operator="in" in2="SourceAlpha"/>
      <feBlend in2="shadowed" result="innerShadow"/>
    </filter>
  </defs>
  <path d="M60.172,11.425 L46.606,11.425 L46.606,9.669 C46.606,7.378 44.709,5.514 42.378,5.514 L28.931,5.514 C26.600,5.514 24.703,7.378 24.703,9.669 L24.703,11.425 L11.824,11.425 C8.334,11.425 5.505,14.205 5.505,17.634 L5.505,44.289 C5.505,47.718 8.334,50.498 11.824,50.498 L60.172,50.498 C63.662,50.498 66.492,47.718 66.492,44.289 L66.492,17.634 C66.492,14.205 63.662,11.425 60.172,11.425 ZM52.527,13.928 L55.105,13.928 L55.105,33.810 L53.816,34.705 L52.527,33.810 L52.527,13.928 ZM27.251,9.669 C27.251,8.759 28.005,8.018 28.931,8.018 L42.378,8.018 C43.304,8.018 44.058,8.759 44.058,9.669 L44.058,11.425 L27.251,11.425 L27.251,9.669 ZM21.329,13.928 L49.980,13.928 L49.980,24.907 C46.128,25.429 41.492,25.786 35.998,25.786 C30.175,25.786 25.312,25.385 21.329,24.812 L21.329,13.928 ZM41.085,28.187 L41.085,30.159 C41.085,30.577 40.738,30.918 40.312,30.918 L30.997,30.918 C30.571,30.918 30.224,30.577 30.224,30.159 L30.224,28.156 C32.037,28.242 33.959,28.290 35.998,28.290 C37.781,28.290 39.474,28.253 41.085,28.187 ZM16.204,13.928 L18.781,13.928 L18.781,33.810 L17.493,34.705 L16.204,33.810 L16.204,13.928 ZM8.052,17.634 C8.052,15.591 9.744,13.928 11.824,13.928 L13.656,13.928 L13.656,23.285 C10.964,22.575 9.116,21.870 8.052,21.407 L8.052,17.634 ZM63.944,44.289 C63.944,46.332 62.252,47.995 60.172,47.995 L11.824,47.995 C9.744,47.995 8.052,46.332 8.052,44.289 L8.052,24.133 C9.356,24.647 11.208,25.277 13.656,25.892 L13.656,35.107 L17.493,37.770 L21.329,35.107 L21.329,27.353 C23.251,27.618 25.364,27.843 27.676,28.006 L27.676,30.159 C27.676,31.958 29.166,33.422 30.997,33.422 L40.312,33.422 C42.143,33.422 43.633,31.958 43.633,30.159 L43.633,28.053 C45.939,27.905 48.051,27.696 49.980,27.446 L49.980,35.107 L53.816,37.770 L57.653,35.107 L57.653,26.063 C60.444,25.396 62.520,24.695 63.944,24.134 L63.944,44.289 ZM63.944,21.406 C62.791,21.907 60.722,22.691 57.653,23.460 L57.653,13.928 L60.172,13.928 C62.252,13.928 63.944,15.591 63.944,17.634 L63.944,21.406 Z" class="cls-1"/>
</svg>
