<svg xmlns="http://www.w3.org/2000/svg" xmlns:xlink="http://www.w3.org/1999/xlink" preserveAspectRatio="xMidYMid" width="70" height="63" viewBox="0 0 70 63">
  <defs>
    <style>
      .cls-1 {
        fill: #d4e4eb;
        filter: url(#filter-chain-1);
        fill-rule: evenodd;
      }
    </style>

    <filter id="filter-chain-1" filterUnits="userSpaceOnUse">
      <feOffset dy="3" in="SourceAlpha"/>
      <feGaussianBlur stdDeviation="2.449" result="dropBlur"/>
      <feFlood flood-color="#171777" flood-opacity="0.42"/>
      <feComposite operator="in" in2="dropBlur" result="dropShadowComp"/>
      <feComposite in="SourceGraphic" result="shadowed"/>
      <feOffset dy="1" in="SourceAlpha"/>
      <feGaussianBlur result="innerShadowBlur"/>
      <feFlood flood-color="#fff" flood-opacity="0.28"/>
      <feComposite operator="out" in2="innerShadowBlur"/>
      <feComposite operator="in" in2="SourceAlpha"/>
      <feBlend in2="shadowed" result="innerShadow"/>
    </filter>
  </defs>
  <path d="M58.700,46.417 L37.200,46.417 L19.453,57.054 L19.453,46.417 L11.283,46.417 C8.332,46.417 5.939,44.027 5.939,41.080 L5.939,11.281 C5.939,8.333 8.332,5.943 11.283,5.943 L58.700,5.943 C61.652,5.943 64.045,8.333 64.045,11.281 L64.045,41.080 C64.045,44.027 61.652,46.417 58.700,46.417 ZM61.531,11.281 C61.531,9.722 60.261,8.454 58.700,8.454 L11.283,8.454 C9.723,8.454 8.453,9.722 8.453,11.281 L8.453,41.080 C8.453,42.639 9.723,43.907 11.283,43.907 L19.453,43.907 L21.966,43.907 L21.966,46.417 L21.966,52.620 L35.906,44.265 L36.503,43.907 L37.200,43.907 L58.700,43.907 C60.261,43.907 61.531,42.639 61.531,41.080 L61.531,11.281 ZM52.214,31.990 C51.730,32.438 51.167,32.764 50.526,32.969 C49.885,33.175 49.134,33.277 48.275,33.277 C47.253,33.277 46.372,33.167 45.634,32.947 C44.895,32.726 44.293,32.385 43.828,31.923 C43.362,31.460 43.020,30.868 42.802,30.146 C42.584,29.424 42.475,28.561 42.475,27.558 L42.475,21.168 C42.475,20.624 42.598,20.216 42.843,19.944 C43.088,19.672 43.410,19.536 43.810,19.536 C44.227,19.536 44.558,19.672 44.803,19.944 C45.048,20.216 45.171,20.624 45.171,21.168 L45.171,27.703 C45.171,28.446 45.254,29.067 45.420,29.566 C45.587,30.064 45.882,30.451 46.306,30.726 C46.729,31.001 47.322,31.138 48.085,31.138 C49.137,31.138 49.882,30.859 50.317,30.300 C50.753,29.741 50.971,28.893 50.971,27.757 L50.971,21.168 C50.971,20.618 51.092,20.209 51.334,19.940 C51.576,19.671 51.900,19.536 52.305,19.536 C52.711,19.536 53.039,19.671 53.290,19.940 C53.541,20.209 53.667,20.618 53.667,21.168 L53.667,27.558 C53.667,28.597 53.565,29.465 53.362,30.159 C53.160,30.855 52.777,31.465 52.214,31.990 ZM39.035,30.912 C39.459,30.912 39.778,31.010 39.993,31.206 C40.208,31.403 40.315,31.664 40.315,31.990 C40.315,32.305 40.208,32.560 39.993,32.756 C39.778,32.953 39.459,33.051 39.035,33.051 L31.711,33.051 C31.124,33.051 30.702,32.921 30.445,32.661 C30.187,32.401 30.059,31.981 30.059,31.401 L30.059,21.412 C30.059,21.026 30.116,20.710 30.231,20.465 C30.346,20.220 30.526,20.042 30.771,19.930 C31.016,19.819 31.330,19.763 31.711,19.763 L38.827,19.763 C39.256,19.763 39.576,19.858 39.784,20.048 C39.993,20.239 40.098,20.488 40.098,20.796 C40.098,21.110 39.993,21.363 39.784,21.553 C39.576,21.743 39.256,21.838 38.827,21.838 L32.754,21.838 L32.754,25.102 L38.346,25.102 C38.757,25.102 39.064,25.194 39.267,25.378 C39.469,25.562 39.571,25.806 39.571,26.108 C39.571,26.410 39.471,26.656 39.271,26.846 C39.072,27.037 38.763,27.132 38.346,27.132 L32.754,27.132 L32.754,30.912 L39.035,30.912 ZM26.837,30.336 C26.546,30.865 26.174,31.338 25.720,31.755 C25.363,32.075 24.973,32.332 24.550,32.525 C24.126,32.719 23.670,32.855 23.183,32.933 C22.696,33.012 22.147,33.051 21.536,33.051 L18.023,33.051 C17.533,33.051 17.164,32.977 16.916,32.829 C16.668,32.681 16.506,32.472 16.431,32.203 C16.355,31.935 16.317,31.586 16.317,31.156 L16.317,21.412 C16.317,20.832 16.447,20.412 16.708,20.152 C16.968,19.893 17.388,19.763 17.969,19.763 L21.482,19.763 C22.395,19.763 23.179,19.847 23.833,20.017 C24.486,20.186 25.079,20.503 25.612,20.968 C26.997,22.153 27.690,23.954 27.690,26.371 C27.690,27.168 27.620,27.896 27.481,28.555 C27.342,29.214 27.127,29.807 26.837,30.336 ZM24.364,23.406 C23.967,22.754 23.478,22.339 22.898,22.160 C22.317,21.982 21.615,21.893 20.792,21.893 L19.013,21.893 L19.013,30.912 L21.055,30.912 C21.503,30.912 21.854,30.900 22.108,30.875 C22.362,30.851 22.625,30.791 22.898,30.694 C23.170,30.597 23.406,30.462 23.606,30.286 C24.507,29.525 24.958,28.214 24.958,26.352 C24.958,25.041 24.760,24.059 24.364,23.406 Z" class="cls-1"/>
</svg>
