<svg xmlns="http://www.w3.org/2000/svg" xmlns:xlink="http://www.w3.org/1999/xlink" preserveAspectRatio="xMidYMid" width="68" height="68" viewBox="0 0 68 68">
  <defs>
    <style>
      .cls-1 {
        fill: #d4e4eb;
        filter: url(#filter-chain-1);
        fill-rule: evenodd;
      }
    </style>

    <filter id="filter-chain-1" filterUnits="userSpaceOnUse">
      <feOffset dy="3" in="SourceAlpha"/>
      <feGaussianBlur stdDeviation="2.449" result="dropBlur"/>
      <feFlood flood-color="#171777" flood-opacity="0.42"/>
      <feComposite operator="in" in2="dropBlur" result="dropShadowComp"/>
      <feComposite in="SourceGraphic" result="shadowed"/>
      <feOffset dy="1" in="SourceAlpha"/>
      <feGaussianBlur result="innerShadowBlur"/>
      <feFlood flood-color="#fff" flood-opacity="0.28"/>
      <feComposite operator="out" in2="innerShadowBlur"/>
      <feComposite operator="in" in2="SourceAlpha"/>
      <feBlend in2="shadowed" result="innerShadow"/>
    </filter>
  </defs>
  <path d="M54.227,38.458 C56.131,40.358 56.131,43.451 54.227,45.352 C53.305,46.273 52.079,46.780 50.776,46.780 C49.472,46.780 48.246,46.273 47.324,45.352 C47.000,45.029 46.730,44.666 46.513,44.278 C42.681,45.036 38.414,45.439 33.992,45.439 C32.485,45.439 30.997,45.392 29.537,45.300 C28.961,45.264 28.491,44.830 28.394,44.261 C28.393,44.253 28.391,44.245 28.390,44.236 C28.256,43.447 28.899,42.744 29.699,42.794 C31.082,42.881 32.514,42.928 33.992,42.928 C38.209,42.928 42.264,42.551 45.897,41.842 C45.913,40.563 46.416,39.363 47.324,38.458 C48.246,37.536 49.472,37.029 50.776,37.029 C52.079,37.029 53.305,37.536 54.227,38.458 ZM48.408,41.904 C48.408,42.536 48.654,43.130 49.101,43.577 C49.548,44.023 50.143,44.269 50.776,44.269 C51.408,44.269 52.003,44.023 52.450,43.577 C53.373,42.655 53.373,41.155 52.450,40.232 C51.988,39.772 51.382,39.541 50.776,39.541 C50.169,39.541 49.563,39.772 49.101,40.232 C48.654,40.679 48.408,41.273 48.408,41.904 ZM53.776,53.756 C48.321,59.204 41.157,61.927 33.992,61.927 C26.827,61.927 19.662,59.204 14.207,53.756 C3.298,42.862 3.298,25.136 14.207,14.241 C23.957,4.505 39.161,3.486 50.072,11.152 C51.976,9.807 54.635,9.980 56.339,11.682 C58.242,13.582 58.242,16.675 56.339,18.576 L56.339,18.576 C55.387,19.526 54.137,20.002 52.887,20.002 C51.637,20.002 50.387,19.526 49.435,18.576 C48.513,17.655 48.006,16.431 48.006,15.129 C48.006,14.411 48.165,13.719 48.458,13.086 C45.669,11.159 42.580,9.850 39.382,9.160 C40.498,10.559 41.509,12.409 42.377,14.681 C44.357,19.861 45.447,26.721 45.447,33.999 C45.447,35.503 45.400,36.989 45.308,38.447 C45.272,39.023 44.838,39.492 44.268,39.589 C44.260,39.590 44.251,39.592 44.243,39.593 C43.453,39.727 42.748,39.085 42.799,38.286 C42.886,36.905 42.933,35.475 42.933,33.999 C42.933,27.020 41.902,20.477 40.028,15.576 C39.160,13.303 38.123,11.462 37.028,10.251 C36.098,9.221 35.158,8.666 34.228,8.584 C34.149,8.584 34.071,8.580 33.992,8.580 C33.892,8.580 33.793,8.586 33.693,8.587 C31.106,8.883 28.386,12.998 26.704,19.601 C26.576,20.103 26.150,20.475 25.634,20.536 L25.608,20.539 C24.741,20.642 24.046,19.843 24.259,18.997 C24.647,17.461 25.096,16.015 25.606,14.681 C26.475,12.408 27.486,10.558 28.602,9.158 C23.976,10.152 19.573,12.433 15.985,16.016 C12.397,19.599 10.113,23.995 9.118,28.615 C10.519,27.501 12.373,26.492 14.648,25.625 C19.835,23.648 26.704,22.559 33.992,22.559 C35.497,22.559 36.984,22.606 38.442,22.697 C39.019,22.733 39.493,23.166 39.590,23.735 L39.594,23.761 C39.729,24.550 39.092,25.254 38.292,25.204 C36.907,25.117 35.472,25.070 33.992,25.070 C27.003,25.070 20.452,26.099 15.544,27.970 C13.268,28.837 11.424,29.874 10.211,30.966 C9.189,31.888 8.633,32.820 8.544,33.740 C8.543,33.926 8.543,34.112 8.545,34.298 C8.843,36.881 12.965,39.598 19.581,41.278 C20.082,41.405 20.448,41.831 20.509,42.344 C20.510,42.353 20.511,42.362 20.512,42.371 C20.615,43.237 19.807,43.929 18.960,43.716 C17.426,43.329 15.981,42.881 14.648,42.373 C12.373,41.506 10.519,40.497 9.118,39.383 C10.113,44.003 12.397,48.399 15.985,51.981 C19.572,55.563 23.972,57.844 28.597,58.838 C27.483,57.439 26.473,55.586 25.606,53.316 C24.064,49.282 23.068,44.224 22.701,38.746 C20.534,38.249 18.911,36.311 18.911,33.999 C18.911,31.311 21.102,29.124 23.793,29.124 C26.485,29.124 28.675,31.311 28.675,33.999 C28.675,36.195 27.213,38.054 25.211,38.663 C25.565,43.858 26.506,48.632 27.955,52.421 C28.823,54.694 29.861,56.536 30.955,57.747 C31.877,58.767 32.809,59.322 33.730,59.411 C33.918,59.413 34.105,59.413 34.292,59.410 C36.879,59.112 39.599,54.996 41.281,48.390 C41.408,47.890 41.835,47.524 42.348,47.464 C42.357,47.462 42.366,47.461 42.375,47.460 C43.242,47.357 43.935,48.164 43.722,49.010 C43.334,50.542 42.886,51.986 42.377,53.316 C41.509,55.589 40.497,57.440 39.381,58.839 C44.008,57.845 48.410,55.564 51.998,51.981 C57.048,46.938 59.522,40.289 59.433,33.666 C59.103,31.092 54.988,28.392 48.400,26.719 C47.899,26.592 47.533,26.165 47.473,25.653 C47.472,25.644 47.471,25.635 47.470,25.626 C47.367,24.760 48.174,24.068 49.021,24.281 C50.556,24.668 52.002,25.116 53.335,25.625 C55.610,26.491 57.461,27.501 58.861,28.616 C58.426,26.600 57.749,24.627 56.821,22.745 C56.534,22.164 56.730,21.461 57.282,21.121 C57.909,20.734 58.740,20.963 59.066,21.623 C64.224,32.065 62.467,45.077 53.776,53.756 ZM51.213,16.801 C52.136,17.723 53.638,17.723 54.562,16.801 C55.009,16.354 55.255,15.760 55.255,15.129 C55.255,14.497 55.009,13.903 54.561,13.457 C54.114,13.010 53.520,12.764 52.887,12.764 C52.255,12.764 51.660,13.010 51.213,13.457 C50.766,13.903 50.519,14.497 50.519,15.129 C50.519,15.760 50.766,16.354 51.213,16.801 ZM26.161,33.999 C26.161,32.695 25.099,31.634 23.793,31.634 C22.488,31.634 21.425,32.695 21.425,33.999 C21.425,35.303 22.488,36.363 23.793,36.363 C25.099,36.363 26.161,35.303 26.161,33.999 Z" class="cls-1"/>
</svg>
