<svg xmlns="http://www.w3.org/2000/svg" xmlns:xlink="http://www.w3.org/1999/xlink" preserveAspectRatio="xMidYMid" width="56" height="52" viewBox="0 0 56 52">
  <defs>
    <style>
      .cls-1 {
        fill: #5c5c9c;
        fill-rule: evenodd;
      }
    </style>
  </defs>
  <path d="M56.007,22.728 C56.007,23.934 55.288,25.012 54.174,25.474 C53.060,25.935 51.791,25.682 50.939,24.829 L28.981,2.850 C28.720,2.589 28.373,2.444 28.003,2.444 C27.634,2.444 27.287,2.589 27.026,2.850 L5.068,24.830 C4.499,25.399 3.743,25.701 2.972,25.701 C2.589,25.701 2.202,25.627 1.833,25.474 C0.719,25.012 -0.000,23.934 -0.000,22.728 L-0.000,3.059 L16.407,3.059 C17.086,3.059 17.635,3.610 17.635,4.289 C17.635,4.968 17.086,5.518 16.407,5.518 L2.456,5.518 L2.456,22.728 C2.456,23.026 2.654,23.153 2.773,23.202 C2.891,23.251 3.121,23.302 3.331,23.091 L25.289,1.111 C26.014,0.386 26.978,-0.014 28.003,-0.014 C29.029,-0.014 29.993,0.386 30.718,1.111 L52.676,23.091 C52.886,23.302 53.116,23.251 53.234,23.202 C53.352,23.153 53.551,23.026 53.551,22.728 L53.551,5.518 L43.865,5.518 L43.873,2.445 L39.600,2.445 C38.921,2.445 38.371,1.894 38.371,1.215 C38.371,0.536 38.921,-0.014 39.600,-0.014 L46.336,-0.014 L46.328,3.059 L56.007,3.059 L56.007,22.728 ZM12.128,43.343 C10.056,43.343 8.376,41.662 8.376,39.589 L8.376,33.381 C8.376,31.307 10.056,29.626 12.128,29.626 L12.133,29.626 C14.205,29.626 15.884,31.307 15.884,33.381 L15.884,39.589 C15.884,41.662 14.205,43.343 12.133,43.343 L12.128,43.343 ZM13.428,39.589 L13.428,33.381 C13.428,32.666 12.847,32.084 12.133,32.084 L12.128,32.084 C11.414,32.084 10.833,32.666 10.833,33.381 L10.833,39.589 C10.833,40.303 11.414,40.885 12.128,40.885 C12.847,40.885 13.428,40.303 13.428,39.589 ZM43.874,43.343 C41.802,43.343 40.123,41.662 40.123,39.589 L40.123,33.381 C40.123,31.307 41.802,29.626 43.874,29.626 L43.879,29.626 C45.951,29.626 47.630,31.307 47.630,33.381 L47.630,39.589 C47.630,41.662 45.951,43.343 43.879,43.343 L43.874,43.343 ZM45.174,39.589 L45.174,33.381 C45.174,32.666 44.593,32.084 43.879,32.084 L43.874,32.084 C43.160,32.084 42.579,32.666 42.579,33.381 L42.579,39.589 C42.579,40.303 43.160,40.885 43.874,40.885 C44.593,40.885 45.174,40.303 45.174,39.589 ZM4.299,27.861 C4.977,27.861 5.527,28.411 5.527,29.090 L5.527,47.298 C5.527,48.542 6.538,49.554 7.780,49.554 L18.835,49.554 L18.835,24.494 C18.835,20.929 25.853,20.652 28.003,20.652 C30.155,20.652 37.173,20.929 37.173,24.494 L37.173,49.554 L48.227,49.554 C49.469,49.554 50.480,48.542 50.480,47.298 L50.480,29.090 C50.480,28.411 51.030,27.861 51.708,27.861 C52.387,27.861 52.937,28.411 52.937,29.090 L52.937,47.298 C52.937,49.898 50.824,52.013 48.227,52.013 L7.780,52.013 C5.183,52.013 3.071,49.898 3.071,47.298 L3.071,29.090 C3.071,28.411 3.620,27.861 4.299,27.861 ZM21.291,49.554 L34.716,49.554 L34.716,24.517 C34.452,24.005 32.020,23.111 28.003,23.111 C23.987,23.111 21.555,24.005 21.291,24.517 L21.291,49.554 Z" class="cls-1"/>
</svg>
