<svg xmlns="http://www.w3.org/2000/svg" xmlns:xlink="http://www.w3.org/1999/xlink" preserveAspectRatio="xMidYMid" width="61" height="45" viewBox="0 0 61 45">
  <defs>
    <style>
      .cls-1 {
        fill: #5c5c9c;
        fill-rule: evenodd;
      }
    </style>
  </defs>
  <path d="M54.672,5.925 L41.106,5.925 L41.106,4.169 C41.106,1.878 39.209,0.014 36.878,0.014 L23.431,0.014 C21.100,0.014 19.203,1.878 19.203,4.169 L19.203,5.925 L6.324,5.925 C2.834,5.925 0.005,8.705 0.005,12.134 L0.005,38.789 C0.005,42.218 2.834,44.998 6.324,44.998 L54.672,44.998 C58.162,44.998 60.992,42.218 60.992,38.789 L60.992,12.134 C60.992,8.705 58.162,5.925 54.672,5.925 ZM47.027,8.428 L49.605,8.428 L49.605,28.310 L48.316,29.205 L47.027,28.310 L47.027,8.428 ZM21.751,4.169 C21.751,3.259 22.505,2.518 23.431,2.518 L36.878,2.518 C37.804,2.518 38.558,3.259 38.558,4.169 L38.558,5.925 L21.751,5.925 L21.751,4.169 ZM15.829,8.428 L44.480,8.428 L44.480,19.407 C40.628,19.929 35.992,20.286 30.498,20.286 C24.675,20.286 19.812,19.885 15.829,19.312 L15.829,8.428 ZM35.585,22.687 L35.585,24.659 C35.585,25.077 35.238,25.418 34.812,25.418 L25.497,25.418 C25.071,25.418 24.724,25.077 24.724,24.659 L24.724,22.656 C26.537,22.742 28.459,22.790 30.498,22.790 C32.281,22.790 33.974,22.753 35.585,22.687 ZM10.704,8.428 L13.281,8.428 L13.281,28.310 L11.993,29.205 L10.704,28.310 L10.704,8.428 ZM2.552,12.134 C2.552,10.091 4.244,8.428 6.324,8.428 L8.156,8.428 L8.156,17.785 C5.464,17.075 3.616,16.370 2.552,15.907 L2.552,12.134 ZM58.444,38.789 C58.444,40.832 56.752,42.495 54.672,42.495 L6.324,42.495 C4.244,42.495 2.552,40.832 2.552,38.789 L2.552,18.633 C3.856,19.147 5.708,19.777 8.156,20.392 L8.156,29.607 L11.993,32.270 L15.829,29.607 L15.829,21.853 C17.751,22.118 19.864,22.343 22.176,22.506 L22.176,24.659 C22.176,26.458 23.666,27.922 25.497,27.922 L34.812,27.922 C36.643,27.922 38.133,26.458 38.133,24.659 L38.133,22.553 C40.439,22.405 42.551,22.196 44.480,21.946 L44.480,29.607 L48.316,32.270 L52.153,29.607 L52.153,20.563 C54.944,19.896 57.020,19.195 58.444,18.634 L58.444,38.789 ZM58.444,15.906 C57.291,16.407 55.222,17.191 52.153,17.960 L52.153,8.428 L54.672,8.428 C56.752,8.428 58.444,10.091 58.444,12.134 L58.444,15.906 Z" class="cls-1"/>
</svg>
