<svg xmlns="http://www.w3.org/2000/svg" xmlns:xlink="http://www.w3.org/1999/xlink" preserveAspectRatio="xMidYMid" width="55.875" height="55.844" viewBox="0 0 55.875 55.844">
  <defs>
    <style>
      .cls-1 {
        fill: #5c5c9c;
        fill-rule: evenodd;
      }
    </style>
  </defs>
  <path d="M48.165,32.380 C50.068,34.280 50.068,37.373 48.165,39.274 C47.243,40.195 46.017,40.702 44.713,40.702 C43.409,40.702 42.183,40.195 41.261,39.274 C40.937,38.951 40.668,38.588 40.451,38.200 C36.618,38.958 32.352,39.361 27.929,39.361 C26.423,39.361 24.934,39.314 23.475,39.222 C22.898,39.186 22.428,38.752 22.331,38.183 C22.330,38.175 22.329,38.167 22.327,38.158 C22.193,37.369 22.836,36.666 23.636,36.716 C25.019,36.803 26.451,36.850 27.929,36.850 C32.146,36.850 36.201,36.473 39.834,35.764 C39.851,34.485 40.354,33.285 41.261,32.380 C42.183,31.458 43.409,30.951 44.713,30.951 C46.017,30.951 47.243,31.458 48.165,32.380 ZM42.345,35.826 C42.345,36.458 42.591,37.052 43.039,37.499 C43.486,37.945 44.081,38.191 44.713,38.191 C45.345,38.191 45.940,37.945 46.387,37.499 C47.311,36.577 47.311,35.077 46.387,34.154 C45.926,33.694 45.319,33.463 44.713,33.463 C44.107,33.463 43.500,33.694 43.039,34.154 C42.591,34.601 42.345,35.195 42.345,35.826 ZM47.714,47.678 C42.259,53.126 35.094,55.849 27.929,55.849 C20.764,55.849 13.599,53.126 8.145,47.678 C-2.764,36.784 -2.764,19.058 8.145,8.163 C17.894,-1.573 33.099,-2.592 44.009,5.074 C45.914,3.729 48.572,3.902 50.277,5.604 C52.180,7.504 52.180,10.597 50.277,12.498 L50.276,12.498 C49.325,13.448 48.075,13.924 46.825,13.924 C45.575,13.924 44.325,13.448 43.373,12.498 C42.451,11.577 41.943,10.353 41.943,9.051 C41.943,8.333 42.103,7.641 42.396,7.008 C39.607,5.081 36.518,3.772 33.320,3.082 C34.435,4.481 35.447,6.331 36.315,8.603 C38.294,13.783 39.384,20.643 39.384,27.921 C39.384,29.425 39.338,30.911 39.246,32.369 C39.210,32.945 38.775,33.414 38.206,33.511 C38.197,33.512 38.189,33.514 38.180,33.515 C37.390,33.649 36.686,33.007 36.736,32.208 C36.823,30.827 36.870,29.397 36.870,27.921 C36.870,20.942 35.839,14.399 33.966,9.498 C33.097,7.225 32.060,5.384 30.966,4.173 C30.036,3.143 29.095,2.588 28.166,2.506 C28.087,2.506 28.008,2.502 27.929,2.502 C27.830,2.502 27.730,2.508 27.631,2.509 C25.044,2.805 22.324,6.920 20.642,13.523 C20.514,14.025 20.087,14.397 19.572,14.458 L19.545,14.461 C18.678,14.564 17.984,13.765 18.197,12.919 C18.584,11.383 19.034,9.937 19.544,8.603 C20.412,6.330 21.424,4.480 22.540,3.080 C17.913,4.074 13.511,6.355 9.923,9.938 C6.335,13.521 4.051,17.917 3.056,22.537 C4.457,21.423 6.310,20.414 8.585,19.547 C13.772,17.570 20.642,16.481 27.929,16.481 C29.434,16.481 30.921,16.528 32.380,16.619 C32.957,16.655 33.430,17.088 33.528,17.657 L33.532,17.683 C33.667,18.472 33.030,19.176 32.229,19.126 C30.844,19.039 29.410,18.992 27.929,18.992 C20.941,18.992 14.389,20.021 9.482,21.892 C7.206,22.759 5.362,23.796 4.149,24.888 C3.126,25.810 2.570,26.742 2.482,27.662 C2.480,27.848 2.481,28.034 2.483,28.220 C2.780,30.803 6.903,33.520 13.519,35.200 C14.019,35.327 14.385,35.753 14.446,36.266 C14.447,36.275 14.448,36.284 14.449,36.293 C14.552,37.159 13.744,37.851 12.898,37.638 C11.364,37.251 9.918,36.803 8.585,36.295 C6.311,35.428 4.457,34.419 3.056,33.305 C4.051,37.925 6.335,42.321 9.923,45.903 C13.509,49.485 17.910,51.766 22.535,52.760 C21.420,51.361 20.411,49.508 19.544,47.238 C18.002,43.204 17.005,38.146 16.638,32.668 C14.471,32.171 12.849,30.233 12.849,27.921 C12.849,25.233 15.039,23.046 17.731,23.046 C20.423,23.046 22.613,25.233 22.613,27.921 C22.613,30.117 21.151,31.976 19.149,32.585 C19.502,37.780 20.444,42.554 21.892,46.343 C22.761,48.616 23.798,50.458 24.893,51.669 C25.814,52.689 26.747,53.244 27.668,53.333 C27.855,53.335 28.042,53.335 28.229,53.332 C30.816,53.034 33.536,48.918 35.218,42.312 C35.345,41.812 35.773,41.446 36.286,41.386 C36.295,41.384 36.304,41.383 36.312,41.382 C37.179,41.279 37.873,42.086 37.659,42.932 C37.272,44.464 36.823,45.908 36.315,47.238 C35.446,49.511 34.435,51.362 33.319,52.761 C37.945,51.767 42.348,49.486 45.936,45.903 C50.985,40.860 53.459,34.211 53.370,27.588 C53.041,25.014 48.926,22.314 42.338,20.641 C41.837,20.514 41.471,20.087 41.410,19.575 C41.409,19.566 41.408,19.557 41.407,19.548 C41.304,18.682 42.112,17.990 42.958,18.203 C44.494,18.590 45.940,19.038 47.273,19.547 C49.547,20.413 51.399,21.423 52.798,22.538 C52.364,20.522 51.686,18.549 50.758,16.667 C50.472,16.086 50.668,15.383 51.220,15.043 C51.846,14.656 52.678,14.885 53.004,15.545 C58.162,25.987 56.405,38.999 47.714,47.678 ZM45.150,10.723 C46.074,11.645 47.576,11.645 48.499,10.723 C48.946,10.276 49.192,9.682 49.192,9.051 C49.192,8.419 48.946,7.825 48.499,7.379 C48.052,6.932 47.457,6.686 46.825,6.686 C46.192,6.686 45.598,6.932 45.150,7.379 C44.703,7.825 44.457,8.419 44.457,9.051 C44.457,9.682 44.703,10.276 45.150,10.723 ZM20.099,27.921 C20.099,26.617 19.036,25.556 17.731,25.556 C16.425,25.556 15.363,26.617 15.363,27.921 C15.363,29.225 16.425,30.285 17.731,30.285 C19.036,30.285 20.099,29.225 20.099,27.921 Z" class="cls-1"/>
</svg>
