<svg xmlns="http://www.w3.org/2000/svg" xmlns:xlink="http://www.w3.org/1999/xlink" preserveAspectRatio="xMidYMid" width="74" height="70" viewBox="0 0 74 70">
  <defs>
    <style>
      .cls-1 {
        fill: #d4e4eb;
        filter: url(#filter-chain-1);
        fill-rule: evenodd;
      }
    </style>

    <filter id="filter-chain-1" filterUnits="userSpaceOnUse">
      <feOffset dy="3" in="SourceAlpha"/>
      <feGaussianBlur stdDeviation="2.449" result="dropBlur"/>
      <feFlood flood-color="#171777" flood-opacity="0.42"/>
      <feComposite operator="in" in2="dropBlur" result="dropShadowComp"/>
      <feComposite in="SourceGraphic" result="shadowed"/>
      <feOffset dy="1" in="SourceAlpha"/>
      <feGaussianBlur result="innerShadowBlur"/>
      <feFlood flood-color="#fff" flood-opacity="0.28"/>
      <feComposite operator="out" in2="innerShadowBlur"/>
      <feComposite operator="in" in2="SourceAlpha"/>
      <feBlend in2="shadowed" result="innerShadow"/>
    </filter>
  </defs>
  <path d="M67.024,64.220 L6.968,64.220 C6.273,64.220 5.711,63.658 5.711,62.965 C5.711,62.272 6.273,61.709 6.968,61.709 L11.555,61.709 L11.555,7.018 C11.555,6.592 11.771,6.195 12.129,5.964 C12.488,5.733 12.940,5.699 13.328,5.874 L39.906,17.826 C40.356,18.029 40.646,18.477 40.646,18.971 L40.646,23.514 L61.696,32.981 C62.147,33.184 62.437,33.632 62.437,34.126 L62.437,61.709 L67.024,61.709 C67.718,61.709 68.281,62.272 68.281,62.965 C68.281,63.658 67.718,64.220 67.024,64.220 ZM38.132,19.782 L14.069,8.960 L14.069,61.663 L38.132,61.663 L38.132,19.782 ZM59.923,34.937 L40.646,26.268 L40.646,61.663 L59.923,61.663 L59.923,34.937 ZM44.736,32.697 L46.356,32.697 C47.050,32.697 47.613,33.259 47.613,33.952 C47.613,34.645 47.050,35.207 46.356,35.207 L44.736,35.207 C44.042,35.207 43.479,34.645 43.479,33.952 C43.479,33.259 44.042,32.697 44.736,32.697 ZM44.736,40.384 L46.356,40.384 C47.050,40.384 47.613,40.946 47.613,41.640 C47.613,42.333 47.050,42.895 46.356,42.895 L44.736,42.895 C44.042,42.895 43.479,42.333 43.479,41.640 C43.479,40.946 44.042,40.384 44.736,40.384 ZM44.736,48.072 L46.356,48.072 C47.050,48.072 47.613,48.634 47.613,49.327 C47.613,50.020 47.050,50.582 46.356,50.582 L44.736,50.582 C44.042,50.582 43.479,50.020 43.479,49.327 C43.479,48.634 44.042,48.072 44.736,48.072 ZM44.736,55.759 L46.356,55.759 C47.050,55.759 47.613,56.321 47.613,57.014 C47.613,57.707 47.050,58.269 46.356,58.269 L44.736,58.269 C44.042,58.269 43.479,57.707 43.479,57.014 C43.479,56.321 44.042,55.759 44.736,55.759 ZM51.071,40.384 L55.833,40.384 C56.527,40.384 57.090,40.946 57.090,41.640 C57.090,42.333 56.527,42.895 55.833,42.895 L51.071,42.895 C50.377,42.895 49.814,42.333 49.814,41.640 C49.814,40.946 50.377,40.384 51.071,40.384 ZM51.071,48.072 L55.833,48.072 C56.527,48.072 57.090,48.634 57.090,49.327 C57.090,50.020 56.527,50.582 55.833,50.582 L51.071,50.582 C50.377,50.582 49.814,50.020 49.814,49.327 C49.814,48.634 50.377,48.072 51.071,48.072 ZM51.071,55.759 L55.833,55.759 C56.527,55.759 57.090,56.321 57.090,57.014 C57.090,57.707 56.527,58.269 55.833,58.269 L51.071,58.269 C50.377,58.269 49.814,57.707 49.814,57.014 C49.814,56.321 50.377,55.759 51.071,55.759 ZM18.824,17.322 L23.586,17.322 C24.280,17.322 24.843,17.884 24.843,18.577 C24.843,19.271 24.280,19.833 23.586,19.833 L18.824,19.833 C18.129,19.833 17.567,19.271 17.567,18.577 C17.567,17.884 18.129,17.322 18.824,17.322 ZM18.824,25.010 L23.586,25.010 C24.280,25.010 24.843,25.572 24.843,26.265 C24.843,26.958 24.280,27.520 23.586,27.520 L18.824,27.520 C18.129,27.520 17.567,26.958 17.567,26.265 C17.567,25.572 18.129,25.010 18.824,25.010 ZM18.824,32.697 L23.586,32.697 C24.280,32.697 24.843,33.259 24.843,33.952 C24.843,34.645 24.280,35.207 23.586,35.207 L18.824,35.207 C18.129,35.207 17.567,34.645 17.567,33.952 C17.567,33.259 18.129,32.697 18.824,32.697 ZM18.824,40.384 L23.586,40.384 C24.280,40.384 24.843,40.946 24.843,41.640 C24.843,42.333 24.280,42.895 23.586,42.895 L18.824,42.895 C18.129,42.895 17.567,42.333 17.567,41.640 C17.567,40.946 18.129,40.384 18.824,40.384 ZM18.824,48.072 L23.586,48.072 C24.280,48.072 24.843,48.634 24.843,49.327 C24.843,50.020 24.280,50.582 23.586,50.582 L18.824,50.582 C18.129,50.582 17.567,50.020 17.567,49.327 C17.567,48.634 18.129,48.072 18.824,48.072 ZM18.824,55.759 L23.586,55.759 C24.280,55.759 24.843,56.321 24.843,57.014 C24.843,57.707 24.280,58.269 23.586,58.269 L18.824,58.269 C18.129,58.269 17.567,57.707 17.567,57.014 C17.567,56.321 18.129,55.759 18.824,55.759 ZM28.615,25.010 L33.378,25.010 C34.072,25.010 34.635,25.572 34.635,26.265 C34.635,26.958 34.072,27.520 33.378,27.520 L28.615,27.520 C27.921,27.520 27.358,26.958 27.358,26.265 C27.358,25.572 27.921,25.010 28.615,25.010 ZM28.615,32.697 L33.378,32.697 C34.072,32.697 34.635,33.259 34.635,33.952 C34.635,34.645 34.072,35.207 33.378,35.207 L28.615,35.207 C27.921,35.207 27.358,34.645 27.358,33.952 C27.358,33.259 27.921,32.697 28.615,32.697 ZM28.615,40.384 L33.378,40.384 C34.072,40.384 34.635,40.946 34.635,41.640 C34.635,42.333 34.072,42.895 33.378,42.895 L28.615,42.895 C27.921,42.895 27.358,42.333 27.358,41.640 C27.358,40.946 27.921,40.384 28.615,40.384 ZM28.615,48.072 L33.378,48.072 C34.072,48.072 34.635,48.634 34.635,49.327 C34.635,50.020 34.072,50.582 33.378,50.582 L28.615,50.582 C27.921,50.582 27.358,50.020 27.358,49.327 C27.358,48.634 27.921,48.072 28.615,48.072 ZM28.615,55.759 L33.378,55.759 C34.072,55.759 34.635,56.321 34.635,57.014 C34.635,57.707 34.072,58.269 33.378,58.269 L28.615,58.269 C27.921,58.269 27.358,57.707 27.358,57.014 C27.358,56.321 27.921,55.759 28.615,55.759 Z" class="cls-1"/>
</svg>
